<mxfile host="app.diagrams.net" modified="2023-11-16T08:31:32.561Z" agent="Mozilla/5.0 (Windows NT 10.0; Win64; x64; rv:109.0) Gecko/20100101 Firefox/119.0" etag="OaqQpQNr0H9Guu7D3l1i" version="22.1.1" type="device">
  <diagram name="Seite-1" id="WmSNxZ4uuDLIfasRdbbB">
    <mxGraphModel dx="1035" dy="549" grid="1" gridSize="10" guides="1" tooltips="1" connect="1" arrows="1" fold="1" page="1" pageScale="1" pageWidth="827" pageHeight="1169" math="0" shadow="0">
      <root>
        <mxCell id="0" />
        <mxCell id="1" parent="0" />
        <mxCell id="q9GStuDWHRI31qfN4YOX-1" value="vertritt" style="endArrow=none;html=1;endFill=0;verticalAlign=bottom;exitX=0.75;exitY=0;exitDx=0;exitDy=0;entryX=0.25;entryY=0;entryDx=0;entryDy=0;rounded=0;labelBackgroundColor=none;" edge="1" parent="1" source="q9GStuDWHRI31qfN4YOX-4" target="q9GStuDWHRI31qfN4YOX-4">
          <mxGeometry relative="1" as="geometry">
            <mxPoint x="280" y="200" as="sourcePoint" />
            <mxPoint x="240" y="80" as="targetPoint" />
            <Array as="points">
              <mxPoint x="320" y="60" />
              <mxPoint x="240" y="60" />
            </Array>
          </mxGeometry>
        </mxCell>
        <mxCell id="q9GStuDWHRI31qfN4YOX-2" value="&lt;font style=&quot;font-size: 9px;&quot;&gt;&lt;sub&gt;&lt;font style=&quot;font-size: 8px;&quot;&gt;&lt;font style=&quot;font-size: 9px;&quot;&gt;&lt;font style=&quot;font-size: 10px;&quot;&gt;verantwortlicher&lt;/font&gt;&lt;/font&gt;&lt;/font&gt;&lt;/sub&gt;&lt;/font&gt;" style="resizable=0;html=1;align=left;verticalAlign=bottom;labelBackgroundColor=none;fontSize=10;spacingTop=0;spacingLeft=4;spacing=0;spacingBottom=2;" connectable="0" vertex="1" parent="q9GStuDWHRI31qfN4YOX-1">
          <mxGeometry x="-1" relative="1" as="geometry" />
        </mxCell>
        <mxCell id="q9GStuDWHRI31qfN4YOX-3" value="&lt;font style=&quot;font-size: 9px;&quot;&gt;&lt;sub&gt;&lt;font style=&quot;font-size: 8px;&quot;&gt;&lt;font style=&quot;font-size: 9px;&quot;&gt;&lt;font style=&quot;font-size: 10px;&quot;&gt;vertreter&lt;/font&gt;&lt;/font&gt;&lt;/font&gt;&lt;/sub&gt;&lt;/font&gt;" style="resizable=0;html=1;align=right;verticalAlign=bottom;labelBackgroundColor=none;fontSize=10;spacingLeft=0;spacing=0;spacingBottom=2;spacingRight=5;spacingTop=0;" connectable="0" vertex="1" parent="q9GStuDWHRI31qfN4YOX-1">
          <mxGeometry x="1" relative="1" as="geometry" />
        </mxCell>
        <mxCell id="q9GStuDWHRI31qfN4YOX-4" value="&lt;b&gt;Sachbearbeiter&lt;/b&gt;" style="html=1;fontStyle=0" vertex="1" parent="1">
          <mxGeometry x="200" y="120" width="160" height="40" as="geometry" />
        </mxCell>
        <mxCell id="q9GStuDWHRI31qfN4YOX-5" value="" style="triangle;whiteSpace=wrap;html=1;dashed=0;direction=north;fillColor=#000000;aspect=fixed;rotation=90;" vertex="1" parent="1">
          <mxGeometry x="303" y="47" width="5" height="10" as="geometry" />
        </mxCell>
        <mxCell id="q9GStuDWHRI31qfN4YOX-6" value="0..1" style="resizable=0;html=1;align=right;verticalAlign=bottom;labelBackgroundColor=none;fontSize=10;spacingTop=0;spacingLeft=0;spacing=0;spacingBottom=2;spacingRight=4;" connectable="0" vertex="1" parent="1">
          <mxGeometry x="320" y="120" as="geometry" />
        </mxCell>
        <mxCell id="q9GStuDWHRI31qfN4YOX-7" value="&lt;sub&gt;&lt;font style=&quot;font-size: 9px;&quot;&gt;&lt;font style=&quot;font-size: 10px;&quot;&gt;0..2&lt;/font&gt;&lt;/font&gt;&lt;/sub&gt;" style="resizable=0;html=1;align=left;verticalAlign=bottom;labelBackgroundColor=none;fontSize=10;spacingLeft=4;spacing=0;spacingBottom=2;spacingRight=0;spacingTop=0;" connectable="0" vertex="1" parent="1">
          <mxGeometry x="240" y="120" as="geometry" />
        </mxCell>
        <mxCell id="q9GStuDWHRI31qfN4YOX-8" value="" style="endArrow=none;html=1;endFill=0;verticalAlign=bottom;exitX=1;exitY=0.5;exitDx=0;exitDy=0;entryX=0;entryY=0.5;entryDx=0;entryDy=0;" edge="1" parent="1" source="q9GStuDWHRI31qfN4YOX-11" target="q9GStuDWHRI31qfN4YOX-16">
          <mxGeometry relative="1" as="geometry">
            <mxPoint x="120" y="280" as="sourcePoint" />
            <mxPoint x="360" y="230" as="targetPoint" />
          </mxGeometry>
        </mxCell>
        <mxCell id="q9GStuDWHRI31qfN4YOX-9" value="&lt;font style=&quot;font-size: 9px;&quot;&gt;&lt;sub&gt;&lt;font style=&quot;font-size: 8px;&quot;&gt;&lt;font style=&quot;font-size: 9px;&quot;&gt;&lt;font style=&quot;font-size: 10px;&quot;&gt;verantwortlicher&lt;/font&gt;&lt;/font&gt;&lt;/font&gt;&lt;/sub&gt;&lt;/font&gt;" style="resizable=0;html=1;align=left;verticalAlign=bottom;labelBackgroundColor=none;fontSize=10;spacingTop=0;spacingLeft=4;spacing=0;spacingBottom=3;" connectable="0" vertex="1" parent="q9GStuDWHRI31qfN4YOX-8">
          <mxGeometry x="-1" relative="1" as="geometry" />
        </mxCell>
        <mxCell id="q9GStuDWHRI31qfN4YOX-10" value="&lt;font style=&quot;font-size: 9px;&quot;&gt;&lt;sub&gt;&lt;font style=&quot;font-size: 8px;&quot;&gt;&lt;font style=&quot;font-size: 9px;&quot;&gt;&lt;font style=&quot;font-size: 10px;&quot;&gt;vertreter&lt;/font&gt;&lt;/font&gt;&lt;/font&gt;&lt;/sub&gt;&lt;/font&gt;" style="resizable=0;html=1;align=right;verticalAlign=bottom;labelBackgroundColor=none;fontSize=10;spacingLeft=0;spacing=0;spacingBottom=3;spacingRight=4;spacingTop=0;" connectable="0" vertex="1" parent="q9GStuDWHRI31qfN4YOX-8">
          <mxGeometry x="1" relative="1" as="geometry">
            <mxPoint x="-1" as="offset" />
          </mxGeometry>
        </mxCell>
        <mxCell id="q9GStuDWHRI31qfN4YOX-11" value="&lt;u&gt;Max : Sachbearbeiter&lt;/u&gt;" style="html=1;fontStyle=0" vertex="1" parent="1">
          <mxGeometry x="40" y="200" width="160" height="40" as="geometry" />
        </mxCell>
        <mxCell id="q9GStuDWHRI31qfN4YOX-12" value="" style="endArrow=none;html=1;endFill=0;verticalAlign=top;exitX=1;exitY=0.75;exitDx=0;exitDy=0;spacing=-3;entryX=0;entryY=0.5;entryDx=0;entryDy=0;" edge="1" parent="1" source="q9GStuDWHRI31qfN4YOX-11" target="q9GStuDWHRI31qfN4YOX-17">
          <mxGeometry relative="1" as="geometry">
            <mxPoint x="200" y="310" as="sourcePoint" />
            <mxPoint x="380" y="330" as="targetPoint" />
            <mxPoint as="offset" />
          </mxGeometry>
        </mxCell>
        <mxCell id="q9GStuDWHRI31qfN4YOX-13" value="&lt;font style=&quot;font-size: 9px;&quot;&gt;&lt;sub&gt;&lt;font style=&quot;font-size: 8px;&quot;&gt;&lt;font style=&quot;font-size: 9px;&quot;&gt;&lt;font style=&quot;font-size: 10px;&quot;&gt;&lt;font style=&quot;font-size: 11px;&quot;&gt;&lt;font style=&quot;font-size: 10px;&quot;&gt;verantwortlicher&lt;/font&gt;&lt;/font&gt;&lt;/font&gt;&lt;/font&gt;&lt;/font&gt;&lt;/sub&gt;&lt;/font&gt;" style="resizable=0;html=1;align=left;verticalAlign=bottom;labelBackgroundColor=none;fontSize=10;spacingTop=0;spacingLeft=4;spacing=0;spacingBottom=2;rotation=30;" connectable="0" vertex="1" parent="q9GStuDWHRI31qfN4YOX-12">
          <mxGeometry x="-1" relative="1" as="geometry" />
        </mxCell>
        <mxCell id="q9GStuDWHRI31qfN4YOX-14" value="&lt;font style=&quot;font-size: 9px;&quot;&gt;&lt;sub&gt;&lt;font style=&quot;font-size: 8px;&quot;&gt;&lt;font style=&quot;font-size: 9px;&quot;&gt;&lt;font style=&quot;font-size: 10px;&quot;&gt;vertreter&lt;/font&gt;&lt;/font&gt;&lt;/font&gt;&lt;/sub&gt;&lt;/font&gt;" style="resizable=0;html=1;align=right;verticalAlign=bottom;labelBackgroundColor=none;fontSize=10;spacingLeft=0;spacing=0;spacingBottom=1;spacingRight=12;spacingTop=0;rotation=30;" connectable="0" vertex="1" parent="q9GStuDWHRI31qfN4YOX-12">
          <mxGeometry x="1" relative="1" as="geometry" />
        </mxCell>
        <mxCell id="q9GStuDWHRI31qfN4YOX-15" value="&lt;u&gt;Sabine : Sachbearbeiter&lt;/u&gt;" style="html=1;fontStyle=0" vertex="1" parent="1">
          <mxGeometry x="40" y="320" width="160" height="40" as="geometry" />
        </mxCell>
        <mxCell id="q9GStuDWHRI31qfN4YOX-16" value="&lt;u&gt;Paul : Sachbearbeiter&lt;/u&gt;" style="html=1;fontStyle=0" vertex="1" parent="1">
          <mxGeometry x="360.22" y="200" width="160" height="40" as="geometry" />
        </mxCell>
        <mxCell id="q9GStuDWHRI31qfN4YOX-17" value="&lt;u&gt;Hugo : Sachbearbeiter&lt;/u&gt;" style="html=1;fontStyle=0" vertex="1" parent="1">
          <mxGeometry x="360.22" y="300" width="160" height="40" as="geometry" />
        </mxCell>
        <mxCell id="q9GStuDWHRI31qfN4YOX-18" value="" style="endArrow=none;html=1;endFill=0;verticalAlign=bottom;exitX=0.5;exitY=0;exitDx=0;exitDy=0;entryX=0.5;entryY=1;entryDx=0;entryDy=0;" edge="1" parent="1" source="q9GStuDWHRI31qfN4YOX-15" target="q9GStuDWHRI31qfN4YOX-11">
          <mxGeometry relative="1" as="geometry">
            <mxPoint x="210" y="220" as="sourcePoint" />
            <mxPoint x="410" y="220" as="targetPoint" />
          </mxGeometry>
        </mxCell>
        <mxCell id="q9GStuDWHRI31qfN4YOX-19" value="&lt;font style=&quot;font-size: 9px;&quot;&gt;&lt;sub&gt;&lt;font style=&quot;font-size: 8px;&quot;&gt;&lt;font style=&quot;font-size: 9px;&quot;&gt;&lt;font style=&quot;font-size: 10px;&quot;&gt;verantwortlicher&lt;/font&gt;&lt;/font&gt;&lt;/font&gt;&lt;/sub&gt;&lt;/font&gt;" style="resizable=0;html=1;align=left;verticalAlign=bottom;labelBackgroundColor=none;fontSize=10;spacingTop=0;spacingLeft=4;spacing=0;spacingBottom=4;" connectable="0" vertex="1" parent="q9GStuDWHRI31qfN4YOX-18">
          <mxGeometry x="-1" relative="1" as="geometry" />
        </mxCell>
        <mxCell id="q9GStuDWHRI31qfN4YOX-20" value="&lt;font style=&quot;font-size: 9px;&quot;&gt;&lt;sub&gt;&lt;font style=&quot;font-size: 8px;&quot;&gt;&lt;font style=&quot;font-size: 9px;&quot;&gt;&lt;font style=&quot;font-size: 10px;&quot;&gt;vertreter&lt;/font&gt;&lt;/font&gt;&lt;/font&gt;&lt;/sub&gt;&lt;/font&gt;" style="resizable=0;html=1;align=left;verticalAlign=top;labelBackgroundColor=none;fontSize=10;spacingLeft=4;spacing=0;spacingBottom=0;spacingRight=0;spacingTop=-4;" connectable="0" vertex="1" parent="q9GStuDWHRI31qfN4YOX-18">
          <mxGeometry x="1" relative="1" as="geometry" />
        </mxCell>
        <mxCell id="q9GStuDWHRI31qfN4YOX-21" value="" style="endArrow=none;html=1;rounded=0;strokeColor=#006666;strokeWidth=2;" edge="1" parent="1">
          <mxGeometry width="50" height="50" relative="1" as="geometry">
            <mxPoint x="20" y="180" as="sourcePoint" />
            <mxPoint x="540" y="180" as="targetPoint" />
          </mxGeometry>
        </mxCell>
      </root>
    </mxGraphModel>
  </diagram>
</mxfile>
